<svg id="_ëîé_1" data-name="‘ëîé_1" xmlns="http://www.w3.org/2000/svg" viewBox="0 0 2706.01 1894.21"><defs><style>.cls-1{fill:#ede0c4;}.cls-2{fill:#a0d6ff;}.cls-3{fill:#56303c;}.cls-4{fill:#b4702f;}.cls-10,.cls-11,.cls-12,.cls-13,.cls-14,.cls-15,.cls-16,.cls-5,.cls-6{fill:none;stroke-linecap:round;stroke-miterlimit:10;}.cls-10,.cls-11,.cls-13,.cls-14,.cls-5,.cls-6{stroke:#56303c;}.cls-5{stroke-width:4.87px;}.cls-6{stroke-width:5.95px;}.cls-7{fill:#ffafb1;}.cls-8{fill:#fff;}.cls-9{fill:#d9af00;}.cls-10{stroke-width:4.33px;}.cls-11{stroke-width:7.27px;}.cls-12{stroke:#fff;stroke-width:4.91px;}.cls-13{stroke-width:6.15px;}.cls-14{stroke-width:5.59px;}.cls-15,.cls-16{stroke:#5d2d3c;}.cls-15{stroke-width:7.36px;}.cls-16{stroke-width:6.87px;}</style></defs><g id="BACKROUND_AFRICA"><path class="cls-1" d="M675,481.18,807.72,341.4A244.05,244.05,0,0,1,969.61,280H1139a110.58,110.58,0,0,1,66.88,22.51l82.49,62.6a103,103,0,0,0,62.28,21h168.17a128.46,128.46,0,0,1,112.42,66.31l131,236.9a109.79,109.79,0,0,0,96.08,56.67h42.08c32.21,0,50,37.39,29.68,62.4l-176,216.66a64.94,64.94,0,0,0-11.2,61.47l32.47,97.37a96.15,96.15,0,0,1-46.89,115.74l-41.51,21.55A83,83,0,0,0,1648.1,1364l-47.71,119.3A219,219,0,0,1,1397,1621h-20.64a58.14,58.14,0,0,1-52.09-32.33L1190.9,1319.6a100.78,100.78,0,0,1,5.75-99.64l9.15-14.09a105.37,105.37,0,0,0-13.44-131.43l-61-61.69a78.78,78.78,0,0,1-5.36-85.64l16.64-29.5a28.16,28.16,0,0,0-24.51-42H843.81c-119.68,0-216.7-97.07-216.7-216.8V601.14A174.24,174.24,0,0,1,675,481.18Z"/><path class="cls-1" d="M1921.3,1227.3l.22.45a57.5,57.5,0,0,1,2.28,45.45l-57.88,155.31a35.46,35.46,0,0,1-33.22,23.07h0a35.44,35.44,0,0,1-35.44-35.44v-124a43.31,43.31,0,0,1,17.78-35l57.44-41.9A32.84,32.84,0,0,1,1921.3,1227.3Z"/></g><g id="_3_HAND" data-name="3 HAND"><g id="BOWL"><path class="cls-2" d="M1623,989.44h304.56a0,0,0,0,1,0,0v24.14a152.28,152.28,0,0,1-152.28,152.28h0A152.28,152.28,0,0,1,1623,1013.57V989.44A0,0,0,0,1,1623,989.44Z"/><ellipse class="cls-3" cx="1775.24" cy="989.44" rx="152.28" ry="24.01"/></g><g id="HAND"><path class="cls-4" d="M2054.68,1300.16,1908.18,1336l-24.81-151.26c-29.55-.59-41.91-18.21-45.34-34.78l-23.49-113.29a3.64,3.64,0,0,1,3.5-4.37l8.35-.13a23.22,23.22,0,0,1,20.7,12l15.53,28.23,15.3-47.43a11.25,11.25,0,0,0-11.13-14.7l-29.28,1.09,14-22.54a26.93,26.93,0,0,1,22.89-12.74l35.14,1.25-5.28-40.94a14.28,14.28,0,0,1-.12-1.95,15.17,15.17,0,0,1,12.51-14.92,2.66,2.66,0,0,1,3,1.73l33.61,95.64Z"/><path class="cls-5" d="M1816.85,1039.68a10.12,10.12,0,1,1,4.06,19.82"/><line class="cls-6" x1="1863.77" y1="1072.4" x2="1878.34" y2="1102.37"/><path class="cls-5" d="M1917.29,921.86c-4,1.55-6.15,5.79-4.74,9.47s5.83,5.4,9.86,3.85"/><path class="cls-6" d="M1935.2,998.48c-3.77-12.79-14.94-20.65-28.21-21.89l-37-2.69"/><polygon class="cls-7" points="2058.92 1308.41 2079.43 1362.68 1906.46 1365.34 1904.11 1351.58 1880.07 1358.28 1877.71 1292.96 2065.45 1267.08 2079.43 1302.69 2058.92 1308.41"/><polygon class="cls-3" points="1991.77 1327.14 1904.11 1351.58 1906.45 1365.33 1991.77 1327.14"/></g></g><g id="_2_HAND" data-name="2 HAND"><g id="BOWL-2" data-name="BOWL"><path class="cls-3" d="M1657.79,1069.29l-.15.92c-3.37,10.44-63.93,19.17-146,22-18.21.63-37.49,1-57.43,1q-13.45,0-26.47-.2c-97.39-1.48-173.18-11-177-22.76l-.15-.92c0-13.19,91.14-23.88,203.57-23.88S1657.79,1056.1,1657.79,1069.29Z"/><circle class="cls-8" cx="1363.08" cy="1066.92" r="11.79"/><path class="cls-8" d="M1514.71,1095.27c-18.21.63-37.49,1-57.43,1-9,0-17.81-.07-26.47-.2,1.54-19.86,19.75-35.54,42-35.54C1494.74,1060.5,1512.77,1075.78,1514.71,1095.27Z"/><ellipse class="cls-8" cx="1559.46" cy="1099.41" rx="26.61" ry="24.48"/><path class="cls-9" d="M1657.64,1070.21l-7.19,44a198.84,198.84,0,0,1-392.48,0l-7.18-44c3.77,11.72,79.56,21.28,177,22.76q13,.19,26.47.2c19.94,0,39.22-.34,57.43-1C1593.71,1089.38,1654.27,1080.65,1657.64,1070.21Z"/></g><g id="HAND-2" data-name="HAND"><path class="cls-4" d="M1238.22,1412.72V1295.54a133.35,133.35,0,0,1,38.29-93.51l98.92-100.55a5.81,5.81,0,0,1,8.78.56l.39.51a25.08,25.08,0,0,1,3,25.14L1375,1161.61a12.79,12.79,0,0,0,15.19,16.85l158.65-41.23a10,10,0,0,1,12.3,5.86l.09.22a10.3,10.3,0,0,1-5.26,13.18c-13.61,6.24-38.09,17.5-38.09,17.5l57-18.82A11.32,11.32,0,0,1,1589,1162l.1.26a11.65,11.65,0,0,1-6.24,14.73c-18.08,7.92-54.31,23.85-54.88,24.1l42.4-13.11a10.1,10.1,0,0,1,12.33,5.84l.08.22a10.35,10.35,0,0,1-4.53,13l-66.43,37a2.43,2.43,0,0,0,1.43,4.53l50.8-5.14c8.06-.82,10.74,10.49,3.17,13.38l-178.22,68a11.6,11.6,0,0,0-7.31,12.77l11.68,69.46Z"/><line class="cls-6" x1="1528.22" y1="1170.74" x2="1483.76" y2="1184.64"/><line class="cls-6" x1="1532.87" y1="1199.6" x2="1496.17" y2="1211.08"/><circle class="cls-5" cx="1553.01" cy="1146.68" r="6.1" transform="translate(-355.96 1434) rotate(-45)"/><circle class="cls-5" cx="1575.31" cy="1197.59" r="6.1" transform="translate(47.83 2455.61) rotate(-76.72)"/><circle class="cls-10" cx="1565.24" cy="1250.29" r="4.75" transform="translate(-11.23 2486.4) rotate(-76.72)"/><circle class="cls-5" cx="1580.35" cy="1165.39" r="7.12" transform="translate(83.04 2435.71) rotate(-76.72)"/><path class="cls-5" d="M1378.19,1101.21a11.2,11.2,0,0,1-15.11,16.39"/><path class="cls-2" d="M1437,1529.52c0,15.53-45.41,28.13-101.42,28.13-40.91,0-76.17-6.72-92.2-16.4-5.92-3.57-9.22-7.54-9.22-11.73v-98h-23.68l12.42-66.48,188.42,25.12,10.77,41.36H1406l30.48,95,.31,1a7.63,7.63,0,0,1,.17.83A8.11,8.11,0,0,1,1437,1529.52Z"/><polygon class="cls-3" points="1405.98 1431.5 1269.91 1431.5 1411.46 1448.58 1405.98 1431.5"/></g></g><g id="_1_HAND" data-name="1 HAND"><g id="BOWL-3" data-name="BOWL"><path class="cls-3" d="M1166.19,926.84a2.47,2.47,0,0,1,0,.54c-2.24,10.53-69.74,19-152.69,19s-150.45-8.45-152.68-19a2.48,2.48,0,0,1-.06-.54.76.76,0,0,1,0-.15.28.28,0,0,1,0-.13c1.17-10.65,69.1-19.24,152.72-19.24s151.55,8.59,152.73,19.24a.53.53,0,0,1,0,.13Z"/><path class="cls-9" d="M998.91,947.49c9.8,17.76,3.9,39.73-13.23,48.62-15.94,8.27-36.23,2-46-14.32-8.08-13.47-6.85-29.65,1.64-40.73a11.62,11.62,0,0,0,.73-12.64L860.86,781.25c-1.73-3.13-.89-7.11,2-8.8a6.33,6.33,0,0,1,8.64,2.67l81.21,147.2a11.53,11.53,0,0,0,11.09,6.13C977.46,927,991.55,934.14,998.91,947.49Z"/><path class="cls-7" d="M1166.14,927.38,1164,951.24c-5.58,79-35,140.31-150.57,140.31-132.55,0-145-61.27-150.57-140.31l-2.11-23.86c2.23,10.53,69.73,19,152.68,19S1163.9,937.91,1166.14,927.38Z"/></g><g id="HAND-3" data-name="HAND"><path class="cls-4" d="M1046.08,1142.28v167.37c0,17.93-30.81,37.62-69.28,44.19-37.49,6.39-68.56-2-71.17-18.87l12-168.74-77.91-60.55a40.94,40.94,0,0,1-13-34.45c4.07-38.55,12.66-106,15-127.89a4.69,4.69,0,0,1,5.92-4l.31.09A29.09,29.09,0,0,1,869,963.68l10.19,64.18a14.56,14.56,0,0,0,5.17,9.33l9.23,7.59a14.68,14.68,0,0,1-4.7-10.77v-7.68a5.64,5.64,0,0,1,7.89-5.18l97.69,42.41A85.81,85.81,0,0,1,1046.08,1142.28Z"/><line class="cls-6" x1="891.16" y1="1045.39" x2="948.79" y2="1090.06"/><path class="cls-5" d="M843.4,945a10.36,10.36,0,1,1-2.24,20.59"/><path class="cls-5" d="M917.15,1031.71a11.26,11.26,0,1,1-20.73-8.8"/><path class="cls-9" d="M1055,1361l.2,5c-3.33,16.14-46.1,21.54-91.05,12.29-44-9.06-78.47-29.22-76.85-45.21h0l.16-1h0l12.11-80-18.65-3.69,14.62-35.18,167.27,28,4.19,44-15.22-3Z"/><polygon class="cls-3" points="1051.76 1282.13 979.46 1267.82 1052.58 1302.21 1051.76 1282.13"/></g></g><g id="BIG_TOP_HAND"><g id="SCOOP"><line class="cls-11" x1="1611.6" y1="756.55" x2="1392.93" y2="249.34"/><path class="cls-2" d="M1636.82,807.08a103,103,0,1,1-31.9-74.54A103,103,0,0,1,1636.82,807.08Z"/><path class="cls-3" d="M1542.59,841.39c-39.53,18.58-81.33,17.37-106.1-.39a103,103,0,0,1,168.43-108.46c.12.25.24.49.35.74C1622,768.83,1593.93,817.24,1542.59,841.39Z"/><path class="cls-8" d="M1389.16,857.54a79.12,79.12,0,0,1,117.37-69.27l47.75,38.93c-13.24,12.55-41.26,16.53-52.94,21.43-10.8,4.53-17.8,17.91-17.8,29.62v213.48c-7.47,0-14.84,1.49-22.1,1.39-25.86-.4-50.26,0-72.27-1.35Z"/><line class="cls-12" x1="1376.8" y1="881.31" x2="1376.8" y2="955.1"/></g><g id="HAND-4" data-name="HAND"><path class="cls-4" d="M1958.78,427.32,1597.25,316.57a104.35,104.35,0,0,0-43.2-3.78l-148.94,18.35a11.23,11.23,0,0,0-7.57,17.95h0A50.82,50.82,0,0,0,1434.23,369l72.38,5.37a3,3,0,0,1,1.1,5.75l-86.19,42,4.6-17.78a16,16,0,0,0-15.49-20h0a16.48,16.48,0,0,0-14.17,8.07l-25.1,42.29a33.23,33.23,0,0,0,7.2,42.41l106.7,89.63a68.21,68.21,0,0,0,71.41,10.17l109-48.14L1902.77,661.2S2005.68,564.1,1958.78,427.32Z"/><path class="cls-13" d="M1424.31,423.5l-15.13,59.7c-2.35,10.21-1.46,15.62,6.56,22.36"/><path class="cls-13" d="M1415.74,505.56a20.89,20.89,0,0,1,1.16-32.9l71.54-52a13.21,13.21,0,0,1,14.82-.48h0a13.2,13.2,0,0,1,3.55,19l-15,20.08"/><path class="cls-13" d="M1452.17,536.15a24.07,24.07,0,0,1-1.6-35.4l63.71-64.13a15,15,0,0,1,19.07-1.85h0a15,15,0,0,1,4.42,20.23l-38.83,64"/><path class="cls-13" d="M1491,568.8a25.94,25.94,0,0,1-3-36.69l40.72-47.68a13.31,13.31,0,0,1,17-2.72h0a13.31,13.31,0,0,1,5.29,16.62l-26,60.52"/><path class="cls-13" d="M1432.8,331.43a15.18,15.18,0,1,1-30.16,3.49"/><path class="cls-13" d="M1510.78,377.17s39.06,46.57,100.12,53.9"/><line class="cls-13" x1="1665.68" y1="528.76" x2="1701.83" y2="504.34"/><circle class="cls-14" cx="1411.76" cy="397.33" r="9.77"/><circle class="cls-14" cx="1496.99" cy="429.49" r="9.77" transform="translate(-50.41 605.57) rotate(-22.5)"/><circle class="cls-14" cx="1526.67" cy="444.33" r="10.92" transform="translate(843.53 1880.11) rotate(-80.78)"/><circle class="cls-14" cx="1539.95" cy="491.79" r="9.77"/><polygon class="cls-9" points="1931.72 399.19 1979.27 396.41 1975.63 712.4 1885.94 681.8 1931.72 399.19"/><polygon class="cls-3" points="1919.7 464.81 1890.39 654.29 1871.95 643.99 1919.7 464.81"/><line class="cls-15" x1="1458.09" y1="400.69" x2="1471.16" y2="430.92"/><line class="cls-16" x1="1549.33" y1="612.51" x2="1526.92" y2="559.79"/></g></g></svg>