<svg id="_ëîé_1" data-name="‘ëîé_1" xmlns="http://www.w3.org/2000/svg" xmlns:xlink="http://www.w3.org/1999/xlink" viewBox="0 0 2706.01 1894.21"><defs><style>.cls-1{fill:#f5b4b4;}.cls-2{fill:#f5efd9;}.cls-3{fill:#a0d6ff;}.cls-11,.cls-13,.cls-14,.cls-15,.cls-17,.cls-18,.cls-19,.cls-20,.cls-21,.cls-22,.cls-4,.cls-6,.cls-9{fill:none;stroke-miterlimit:10;}.cls-21,.cls-4{stroke:#d9af00;}.cls-11,.cls-14,.cls-15,.cls-17,.cls-18,.cls-19,.cls-20,.cls-4,.cls-9{stroke-linecap:round;}.cls-11,.cls-17,.cls-19,.cls-21,.cls-4,.cls-6{stroke-width:4.33px;}.cls-5{fill:#fff;}.cls-19,.cls-22,.cls-6{stroke:#a0d6ff;}.cls-7{fill:#56303c;}.cls-8{fill:#d9af00;}.cls-13,.cls-14,.cls-15,.cls-17,.cls-20,.cls-9{stroke:#fff;}.cls-9{stroke-width:4.67px;}.cls-10{fill:#b4702f;}.cls-11{stroke:#56303c;}.cls-12{clip-path:url(#clip-path);}.cls-13{stroke-width:2.71px;}.cls-14,.cls-18,.cls-22{stroke-width:3.79px;}.cls-15{stroke-width:3.34px;}.cls-16{fill:#ffafb1;}.cls-18{stroke:#f5f0dc;}.cls-20{stroke-width:2.73px;}</style><clipPath id="clip-path"><polygon class="cls-1" points="2114.2 971.62 1982.71 971.62 1948.65 769.71 2137.66 769.71 2114.2 971.62"/></clipPath></defs><g id="HOUSE_BACKGROUND" data-name="HOUSE BACKGROUND"><path class="cls-2" d="M1674.24,1626.86H449.29A58.85,58.85,0,0,1,390.45,1568V508.64a58.85,58.85,0,0,1,39.42-55.55L1042.35,239a58.79,58.79,0,0,1,38.84,0l612.48,214.14a58.85,58.85,0,0,1,39.42,55.55V1568A58.85,58.85,0,0,1,1674.24,1626.86Z"/><rect class="cls-3" x="1756.18" y="468.42" width="559.9" height="1152.29" rx="28.59"/></g><g id="DOOR"><path class="cls-4" d="M1731.72,446.89,1639,414.12a21.63,21.63,0,0,0-28.84,20.4v1166.1"/><line class="cls-4" x1="1654.22" y1="978.72" x2="1632.9" y2="978.72"/><ellipse class="cls-4" cx="1672.3" cy="963.59" rx="20.53" ry="31.88"/></g><g id="MAN_WITH_DOG" data-name="MAN WITH DOG"><g id="MAN"><g id="BODY"><path class="cls-5" d="M2224.82,682.16,2217,769.71h-79.34l-16.48,141.61s-93.69,23.57-147.95,0l-24.58-141.61-73-37.11,32-65.63a69.35,69.35,0,0,1,60.77-36h33.9a16.54,16.54,0,0,0,16.55-16.54v-6.19a4.37,4.37,0,0,1,4.37-4.36h81.37a6.4,6.4,0,0,1,5.23,2.72l9.34,13.38a25.71,25.71,0,0,0,21.09,11h37.73A47,47,0,0,1,2224.82,682.16Z"/><line class="cls-6" x1="1948.65" y1="769.71" x2="1970.13" y2="722.4"/><line class="cls-6" x1="2139.55" y1="769.71" x2="2139.55" y2="727.05"/></g><g id="LEGS"><g id="SHOE"><path class="cls-7" d="M1823,1581.23l4.2,32.81a11.37,11.37,0,0,1-14,12.48l-142.93-35.25.29-1.31a10.59,10.59,0,0,1,10.71-8.31c21.51.75,76.16,1,91.34-15.24Z"/><line class="cls-4" x1="1670.25" y1="1593.16" x2="1820.41" y2="1630.96"/><line class="cls-4" x1="1763.07" y1="1584.74" x2="1752.54" y2="1574.11"/><line class="cls-4" x1="1747.93" y1="1588.53" x2="1737.4" y2="1577.9"/></g><g id="LEGS-2" data-name="LEGS"><path class="cls-8" d="M1973.23,911.33l-217,650.26,90.37,26.58L2045,1139l53.43,153.8a33.52,33.52,0,0,0,19.34,20.18l198.32,78.5v-85l-132.7-74.17a21.11,21.11,0,0,1-10.82-18.43V1002.68a83.39,83.39,0,0,0-19.67-53.8l-31.71-37.55Z"/><line class="cls-9" x1="2044.99" y1="1146.57" x2="2017.97" y2="1037.35"/><path class="cls-7" d="M2121.18,911.32,2144,930.93c19.18,16.51,29.72,39,28.6,64.29v1.9l-152-25.5Z"/><line class="cls-9" x1="2177.78" y1="1225.7" x2="2163.09" y2="1219.09"/><polygon class="cls-7" points="2316.08 1306.44 2316.08 1391.49 2298.08 1384.37 2311.15 1303.69 2316.08 1306.44"/></g></g><g id="HAND"><path class="cls-10" d="M1625.78,936.92a27,27,0,0,1,1.52-21.84,39.59,39.59,0,0,1,20.09-18.37l177.45-72.65,50.84-91.46,73,37.11-73.16,106.1a50.57,50.57,0,0,1-31.82,20.89l-179.17,35-15,29.66h-5.15a14,14,0,0,1-13.2-9.33Z"/><path class="cls-11" d="M1664.5,918.25l-8,7.68a15.67,15.67,0,0,0-4,16.24l.14.42"/></g><g id="BAG"><path class="cls-8" d="M2060.78,769.62c0-34.06,11.33-61.68,25.3-61.68s25.3,27.62,25.3,61.68Z"/><ellipse class="cls-5" cx="2082.5" cy="748.91" rx="16.09" ry="5.39" transform="translate(-29.48 1410.15) rotate(-37.16)"/><polygon class="cls-3" points="1978.66 769.62 2011.7 739.95 2047.4 769.71 1978.66 769.62"/><polygon class="cls-1" points="2114.2 971.62 1982.71 971.62 1948.65 769.71 2137.66 769.71 2114.2 971.62"/><g class="cls-12"><line class="cls-13" x1="1984.6" y1="971.62" x2="1984.6" y2="769.71"/><line class="cls-13" x1="1963.79" y1="971.62" x2="1963.79" y2="769.71"/><line class="cls-13" x1="2006.04" y1="971.62" x2="2006.04" y2="769.71"/><line class="cls-13" x1="2027.49" y1="971.62" x2="2027.49" y2="769.71"/><line class="cls-13" x1="2048.93" y1="971.62" x2="2048.93" y2="769.71"/><line class="cls-13" x1="2070.38" y1="971.62" x2="2070.38" y2="769.71"/><line class="cls-13" x1="2091.82" y1="971.62" x2="2091.82" y2="769.71"/><line class="cls-13" x1="2113.27" y1="971.62" x2="2113.27" y2="769.71"/><line class="cls-13" x1="2115.78" y1="955.81" x2="1980.88" y2="955.81"/><line class="cls-13" x1="2115.78" y1="934.37" x2="1976.28" y2="934.37"/><line class="cls-13" x1="2114.25" y1="912.92" x2="1971.68" y2="912.92"/><line class="cls-13" x1="2112.71" y1="891.48" x2="1968.61" y2="891.48"/><line class="cls-13" x1="2114.25" y1="870.03" x2="1965.54" y2="870.03"/><line class="cls-13" x1="2112.71" y1="848.59" x2="1960.94" y2="848.59"/><line class="cls-13" x1="2112.71" y1="827.15" x2="1957.87" y2="827.15"/><line class="cls-13" x1="2114.23" y1="805.7" x2="1954.8" y2="805.7"/><line class="cls-13" x1="2112.71" y1="784.26" x2="1950.2" y2="784.26"/></g><polygon class="cls-7" points="2112.31 971.62 2111.38 769.71 2168.54 769.71 2127.71 971.62 2112.31 971.62"/><line class="cls-14" x1="2130.77" y1="971.62" x2="2139.38" y2="927.55"/></g><g id="HAND-2" data-name="HAND"><path class="cls-10" d="M1929.23,907.47a57.69,57.69,0,0,1,31-26.63l171.67-62,5.71-49.11H2217l-13.23,79.9a43.16,43.16,0,0,1-33.71,35.19L1967.9,927.29l-7,21A23.06,23.06,0,0,1,1939,964.06Z"/><line class="cls-11" x1="2128.96" y1="817.93" x2="2140.97" y2="813.75"/><line class="cls-11" x1="1971.51" y1="918.07" x2="1969.11" y2="929.09"/></g><g id="HEAD"><g id="HAIR"><path class="cls-7" d="M2142.69,501c2.65,5.86,2.93,12.16.22,17.59-3,6-9.11,9.75-16.34,10.77a29,29,0,0,1-36.32,33.24l-13.2-36.18-6.75,0c-10.92-1.3-19.31-9-19.31-18.27a15.73,15.73,0,0,1,.19-2.39,24.24,24.24,0,0,1-6.54.89,22.71,22.71,0,0,1-20.71-12.58,19.05,19.05,0,0,1-3.72,1c-2.61,9-11.49,15.64-22,15.64-12.6,0-22.81-9.47-22.81-21.15,0-8.84,5.84-16.4,14.13-19.57a9.61,9.61,0,0,1,3.32-16.41,20.54,20.54,0,0,1-1.24-7c0-11.69,9.78-21.15,21.84-21.15a22.23,22.23,0,0,1,11.85,3.38,24.73,24.73,0,0,1,39.41-.05,19.37,19.37,0,0,1,34.57,6.9,24,24,0,0,1,8.28-1.45c12.47,0,22.59,9.4,22.59,21a19.81,19.81,0,0,1-2.91,10.32c12.07.42,21.72,9.66,21.72,21A20.18,20.18,0,0,1,2142.69,501Z"/><path class="cls-15" d="M2021,489.57c0,11.68-10.21,21.15-22.81,21.15s-22.81-9.47-22.81-21.15,10.21-21.15,22.81-21.15"/><path class="cls-15" d="M2070.73,502.56a13.28,13.28,0,0,1-13.27-13.28"/><path class="cls-15" d="M2052.72,503.51c-1.13.35-4.28,1.64-6.55,1.64-13.55,0-23.16-8.64-22.6-21"/></g><g id="HEAD-2" data-name="HEAD"><path class="cls-10" d="M2103.91,603.92h-79.4V584.64h-6.36a19.82,19.82,0,0,1-19.8-20.76l2.41-51a33.23,33.23,0,0,1,21.42-29.53,17.64,17.64,0,0,0-.14,2.3c0,11.61,10.12,21,22.6,21a24.24,24.24,0,0,0,6.54-.89,15.73,15.73,0,0,0-.19,2.39c0,9.29,8.39,17,19.31,18.27l6.75,0a14.44,14.44,0,0,1,11-5.07h1.23a14.46,14.46,0,1,1,0,28.92h-3.53Z"/><path class="cls-7" d="M2024.52,584.64s24.24,0,36.42-11.51l-31,30.79h-5.41Z"/><g id="FACE"><path class="cls-11" d="M2015.88,515.62,2008,540a2.81,2.81,0,0,0,2.19,3.42l6.91,1.33"/><path class="cls-7" d="M2033.86,526c0,2.82-1.49,5.1-3.34,5.1s-3.33-2.28-3.33-5.1,1.49-5.09,3.33-5.09S2033.86,523.21,2033.86,526Z"/><path class="cls-7" d="M2004.75,526c0,2.59-1,4.68-2.33,4.68s-2.34-2.09-2.34-4.68,1.05-4.67,2.34-4.67S2004.75,523.44,2004.75,526Z"/><path class="cls-11" d="M2016.59,556.78s7.93,1.36,13.93-6.61"/></g><g id="EAR"><path class="cls-11" d="M2093,530.21s-10-2-10,8.59"/><line class="cls-11" x1="2090.03" y1="538.47" x2="2085.32" y2="533.49"/></g></g></g></g><g id="DOG"><g id="DOG-2" data-name="DOG"><path class="cls-5" d="M2258.73,1589.57v31.13H2245l-6.07-26.63s-43.66,3.74-50-26.48c-11.86,13.63-22.89,31.74-24.7,53.11H2154v-24.07s-15.05-23.46-11.6-45.4l-41.72,7.57L2116,1620c.06.24.13.47.2.7h-16.29l-39.07-59.83h-10.59a14.21,14.21,0,0,0-13.8,10.8l-11.06,49h-13.58l-8-89.89c-5.1-8-9.07-18-11-30.75l.25-.49c-.73,0-1.46,0-2.2,0h-17.71c-12,0-16.84-12.4-11.82-23.26l26.6-57.6a7.73,7.73,0,0,1-13.62.77l-11.87-19.59a5.56,5.56,0,0,1,4.75-8.45h12.56a12.64,12.64,0,0,1,10.67,5.88l4.27,6.75c5.53,3.37,14.48,5.57,24.59,5.57,9.37,0,17.76-1.89,23.33-4.86,10.87,51.59,46.12,67.7,104.07,67.7,32.79,0,62.07-8.69,81.31-22.3a3.36,3.36,0,0,1,5.08,3.92l-12,31.72v23.83s-.16,1.74-.18,4.72c-.12,13.16,2.35,50.39,32.55,66.28A10,10,0,0,1,2258.73,1589.57Z"/><path class="cls-11" d="M2219.52,1511.24A61.94,61.94,0,0,1,2199.3,1557c-2.41,2.2-4.9,4.61-7.41,7.23"/><path class="cls-11" d="M2140.46,1551.23s3.44-10.16,6.88-15.68"/><line class="cls-11" x1="2102.53" y1="1558.8" x2="2097.3" y2="1543.37"/><path class="cls-11" d="M2013.1,1543.39s16.29,18.23,47.71,17.48"/><line class="cls-11" x1="1992.05" y1="1405.57" x2="1985.62" y2="1419.49"/><path class="cls-7" d="M2042.58,1405.19l-4.27-6.75a12.62,12.62,0,0,0-10.67-5.87h-12.56a5.56,5.56,0,0,0-4.75,8.44l11.45,18.9a8.16,8.16,0,0,0,14.38-.81Z"/><path class="cls-7" d="M1986,1479.88c0,2.27-2.67,4.16-6.25,4.66v4.92a1.9,1.9,0,1,1-3.79,0v-4.92c-3.58-.5-6.25-2.39-6.25-4.66,0-2.64,3.65-4.78,8.15-4.78S1986,1477.24,1986,1479.88Z"/><circle class="cls-7" cx="2013.1" cy="1451.87" r="4.13"/><path class="cls-7" d="M1986,1449.66c-3.78,8.85-11.57,14.34-18.82,13.94l16.76-36.29C1988.53,1432.45,1989.58,1441.31,1986,1449.66Z"/></g><g id="COLLAR"><path class="cls-11" d="M1880.28,987.51l27.38-66.5c3.86-9.39,11.49-15.53,21.65-15.53"/><path class="cls-11" d="M1969.44,927.29,2100.85,1445c10.56,30.15-31.27,48.38-50.46,29.6"/><path class="cls-16" d="M2051.18,1430.08c1,43.4-29.82,70-58.4,70l2.13,10.3c26.33,0,61.41-21.26,64.72-67.25"/><circle class="cls-16" cx="1999.43" cy="1525.14" r="10.98" transform="translate(55.72 3120.67) rotate(-76.72)"/><line class="cls-11" x1="2000.42" y1="1508.68" x2="2000.42" y2="1516.58"/></g></g></g><g id="OLD_MAN" data-name="OLD MAN"><g id="LEGS-3" data-name="LEGS"><g id="PANTS"><path class="cls-7" d="M859,1572.18H965.33l58-101.26a239.64,239.64,0,0,0,30.9-99.55l9.23-112.72,69.15-12.27v325.8h93.07l34-110.4a308.86,308.86,0,0,0,13.69-90.91V1096.44H898.54v309.11A165,165,0,0,1,892.7,1449Z"/><line class="cls-4" x1="1063.48" y1="1258.65" x2="1159.4" y2="1240.02"/></g><g id="FOOT"><rect class="cls-7" x="855.07" y="1615.12" width="159.86" height="11.59"/><path class="cls-16" d="M1014.93,1615.12H884.66a28.91,28.91,0,0,1-27.16-38.82l1.51-4.12H965.33l-.23.62C1007.61,1578.1,1014.93,1615.12,1014.93,1615.12Z"/><path class="cls-8" d="M1014.93,1615.12s-8.49-42.94-60.29-42.94c-45,0-62.19,42.94-62.19,42.94Z"/><circle class="cls-5" cx="968.06" cy="1568.4" r="15.98"/></g><g id="FOOT-2" data-name="FOOT"><rect class="cls-7" x="1132.63" y="1615.12" width="159.86" height="11.59"/><path class="cls-16" d="M1292.49,1615.12H1170a37.38,37.38,0,0,1-37.37-37.38v-5.56h93.75C1278.18,1572.18,1292.49,1615.12,1292.49,1615.12Z"/><path class="cls-8" d="M1292.49,1615.12s-14.31-42.94-66.11-42.94c-45,0-56.37,42.94-56.37,42.94Z"/><circle class="cls-5" cx="1235.24" cy="1564" r="15.98"/></g></g><g id="HAND-3" data-name="HAND"><path class="cls-5" d="M1201.84,677.32l15.17,4.85A170.25,170.25,0,0,1,1334.13,822.9l10.16,80L1439,967.62l-40.89,55.21H1273.41V756.59Z"/><line class="cls-4" x1="1346.23" y1="902.87" x2="1324.32" y2="886.88"/><path class="cls-4" d="M1411.82,949s-38.45,12.46-46.17,73.81"/><path class="cls-16" d="M1439,967.62l24.53,18.09a50.35,50.35,0,0,1,14.71,17.13l5,9.49a7.16,7.16,0,0,1-6.34,10.5h-78.78S1403.36,985.11,1439,967.62Z"/><path class="cls-11" d="M1429.63,1021.25l-2.93-6.59a7.39,7.39,0,0,1,6.75-10.39h32.81"/><line class="cls-11" x1="1446.16" y1="1021.25" x2="1439.03" y2="1004.27"/><line class="cls-11" x1="1463.03" y1="1021.25" x2="1455.91" y2="1004.27"/></g><g id="BODY-2" data-name="BODY"><path class="cls-3" d="M898.54,936.86v159.58h374.87V756.59a79.24,79.24,0,0,0-96.67-77.3l-88.13,19.87A243.67,243.67,0,0,0,898.54,936.86Z"/><polygon class="cls-5" points="913.53 1096.44 1095.63 1156.41 1130.96 1114.84 1155.51 1151.64 1273.41 1105.98 1273.41 1096.44 913.53 1096.44"/><path class="cls-17" d="M1181,731c.94,2.28,52.4,130.68,52.4,130.68"/><line class="cls-4" x1="1095.63" y1="1154.47" x2="1143.44" y2="1099.58"/></g><g id="WALKER"><path class="cls-4" d="M1175.9,1625.17l42.28-558.69a61.54,61.54,0,0,1,61.43-56.79h0a61.54,61.54,0,0,1,61.44,56.79l35.77,477.27"/><path class="cls-4" d="M1473.3,1006.57a61.39,61.39,0,0,1,34.67,50.7l35.8,486.74"/><line class="cls-4" x1="1363.3" y1="1366.57" x2="1195.47" y2="1366.57"/><line class="cls-4" x1="1343.33" y1="1096.65" x2="1510.25" y2="1096.65"/><circle class="cls-11" cx="1377.32" cy="1593.16" r="32.8"/><path class="cls-4" d="M1350.26,1556.16c14.94-12.81,39.17-12.81,54.12,0"/><path class="cls-4" d="M1517.47,1556.16c15-12.81,39.18-12.81,54.12,0"/><circle class="cls-11" cx="1544.53" cy="1593.16" r="32.8"/><line class="cls-4" x1="1381.66" y1="1580.08" x2="1379.23" y2="1586.26"/><line class="cls-4" x1="1373.78" y1="1600.06" x2="1371.34" y2="1606.23"/><line class="cls-4" x1="1363.43" y1="1588" x2="1369.6" y2="1590.43"/><line class="cls-4" x1="1383.41" y1="1595.88" x2="1389.58" y2="1598.32"/><line class="cls-4" x1="1550.94" y1="1580.64" x2="1547.91" y2="1586.55"/><line class="cls-4" x1="1541.15" y1="1599.77" x2="1538.13" y2="1605.67"/><line class="cls-4" x1="1532.02" y1="1586.76" x2="1537.93" y2="1589.78"/><line class="cls-4" x1="1551.14" y1="1596.54" x2="1557.05" y2="1599.56"/></g><g id="HAND-4" data-name="HAND"><path class="cls-5" d="M1222.51,957.39,1178,1022.83H1095.6a126.52,126.52,0,0,1-110.88-65.58l-11.21-20.39h-75A243.71,243.71,0,0,1,1041,715.19h0a64.32,64.32,0,0,1,64.31,64.32v117Z"/><line class="cls-4" x1="973.51" y1="940.74" x2="945.34" y2="890.72"/><line class="cls-4" x1="1109.16" y1="896.51" x2="1090.67" y2="885.34"/><path class="cls-4" d="M1185.6,939.23s-43.51,16.35-52.14,83.6"/><path class="cls-4" d="M986.55,958.09a40.45,40.45,0,0,1,54,51.1"/><path class="cls-16" d="M1237.49,1042.57l-59.5-19.74s4.54-50.44,44.52-65.44L1251,973.48A32.64,32.64,0,0,1,1262.3,984l11,33a10.29,10.29,0,0,1-5.74,12.72Z"/><line class="cls-11" x1="1254.86" y1="1006.23" x2="1265.89" y2="1027.66"/><line class="cls-11" x1="1243.84" y1="1010.54" x2="1254.86" y2="1031.97"/><line class="cls-11" x1="1232.81" y1="1015.94" x2="1243.84" y2="1037.37"/></g><g id="HEAD-3" data-name="HEAD"><path id="HEAD-4" data-name="HEAD" class="cls-16" d="M1222.92,826.69l-40-97.24h-2.69A20.45,20.45,0,0,1,1159.8,709h0a20.45,20.45,0,0,1,20.45-20.45h13.59V634.94h131.77v71.29a107.28,107.28,0,0,1-54.74,93.54Z"/><g id="EAR-2" data-name="EAR"><path class="cls-11" d="M1179,699.46s11.77-1.69,14,14.24"/><line class="cls-11" x1="1178.72" y1="711.72" x2="1187.78" y2="703.59"/></g><g id="HAIR-2" data-name="HAIR"><path class="cls-5" d="M1325.61,632.88v55.68l-16.46-50.21s-36.7,20.34-79,1.94v10.15a38.13,38.13,0,0,1-19.76,33.42l-4,2.93a13.28,13.28,0,0,0-5.39,10.68v3.31a.53.53,0,0,1-.55.54.52.52,0,0,1-.53-.45,14.73,14.73,0,0,0-14.54-12.31h-1.6V656a50.21,50.21,0,0,1,17.89-38.49h-10.25a2.06,2.06,0,0,1,0-4.11h10.91v-9.45a2.06,2.06,0,1,1,4.11,0v10a50.07,50.07,0,0,1,27.67-8.29h64.19A27.25,27.25,0,0,1,1325.61,632.88Z"/><path class="cls-18" d="M1204.26,615.49l24,22.92a5.48,5.48,0,0,0,4.74,1.45c10-1.74,44.56-9.35,65.4-34.23"/><path class="cls-18" d="M1309.15,640.29c10.1-5.23,15.11-15.91,15.11-15.91"/><path class="cls-18" d="M1254.73,605.63c-11.51,16.44-33.87,25.74-33.87,25.74"/></g><g id="FACE-2" data-name="FACE"><path class="cls-11" d="M1288.78,694.31s7.18,12.65,6,34.7H1282"/><path class="cls-5" d="M1248.78,682H1276a0,0,0,0,1,0,0v1.54a11.49,11.49,0,0,1-11.49,11.49h-27.26a0,0,0,0,1,0,0v-1.54A11.49,11.49,0,0,1,1248.78,682Z" transform="translate(-88.23 194.02) rotate(-8.53)"/><path class="cls-5" d="M1300.28,680.84h18.25a11.27,11.27,0,0,1,11.27,11.27v1.76a0,0,0,0,1,0,0h-18.25a11.27,11.27,0,0,1-11.27-11.27v-1.76A0,0,0,0,1,1300.28,680.84Z" transform="translate(2541.55 1522.5) rotate(-173.34)"/><path class="cls-11" d="M1256.26,711.85s8.47-5.1,14.17.43"/><path class="cls-11" d="M1304.79,709.91s6.11-4.64,12.22.43"/><line class="cls-11" x1="1286.84" y1="773.3" x2="1286.84" y2="780.9"/><path class="cls-5" d="M1310.9,749.89h-50.83l2.46-7.79a15.39,15.39,0,0,1,14.67-10.71h17.31a15.36,15.36,0,0,1,15,12.16Z"/></g><g id="GLASSES"><circle class="cls-4" cx="1263.34" cy="712.28" r="18.62"/><circle class="cls-4" cx="1316.7" cy="711.66" r="18.62" transform="translate(321.56 1829.64) rotate(-76.72)"/><line class="cls-4" x1="1281.96" y1="712.28" x2="1298.09" y2="712.28"/></g></g></g><g id="TABLE"><g id="TABLE-2" data-name="TABLE"><line class="cls-4" x1="730.88" y1="1127.08" x2="730.88" y2="1626.86"/><line class="cls-4" x1="747.76" y1="1127.08" x2="747.76" y2="1626.86"/><line class="cls-4" x1="535.4" y1="1127.08" x2="535.4" y2="1626.86"/><line class="cls-4" x1="518.53" y1="1127.08" x2="518.53" y2="1626.86"/><path class="cls-8" d="M535.4,1166.57v9.84l-16.87-.09v-7.67A101.85,101.85,0,0,0,535.4,1166.57Z"/><path class="cls-8" d="M747.76,1168.63v7.67H730.89v-9.85A102.48,102.48,0,0,0,747.76,1168.63Z"/><line class="cls-4" x1="535.4" y1="1241.56" x2="730.88" y2="1241.56"/><line class="cls-4" x1="535.4" y1="1259.97" x2="730.88" y2="1259.97"/><circle class="cls-4" cx="632.93" cy="1201.66" r="9.7" transform="translate(-654.59 1633.93) rotate(-80.78)"/><path class="cls-5" d="M813.51,1126v9.28c0,18.47-27.09,33.44-60.52,33.44-28.82,0-52.93-11.12-59-26-6.1,14.91-30.21,26-59,26-33.43,0-60.53-15-60.53-33.44,0,18.47-27.1,33.44-60.53,33.44s-60.53-15-60.53-33.44V1126c0-10.92,9.58-19.77,21.4-19.77H792.12C803.93,1106.26,813.51,1115.11,813.51,1126Z"/><line class="cls-19" x1="694.47" y1="1135.95" x2="694.47" y2="1146.99"/><line class="cls-19" x1="574.39" y1="1132.44" x2="574.39" y2="1143.48"/></g><g id="LAMP"><rect class="cls-8" x="493.45" y="703.97" width="259.57" height="138.2"/><circle class="cls-7" cx="501.44" cy="856.6" r="6.34"/><circle class="cls-7" cx="745.03" cy="856.6" r="6.34"/><circle class="cls-7" cx="696.31" cy="856.6" r="6.34"/><circle class="cls-7" cx="647.6" cy="856.6" r="6.34"/><circle class="cls-7" cx="598.88" cy="856.6" r="6.34"/><circle class="cls-7" cx="550.16" cy="856.6" r="6.34"/><path class="cls-3" d="M648.13,887.47H598.34a6.21,6.21,0,0,1-6.2-6.2h0a6.2,6.2,0,0,1,6.2-6.2h49.79a6.2,6.2,0,0,1,6.2,6.2h0A6.21,6.21,0,0,1,648.13,887.47Z"/><path class="cls-3" d="M647.23,1098.32h-48a48.4,48.4,0,0,1-46.59-61.49L589,907.54a15.36,15.36,0,0,1,14.79-11.21h38.91a15.36,15.36,0,0,1,14.79,11.21l36.34,129.29A48.4,48.4,0,0,1,647.23,1098.32Z"/><line class="cls-20" x1="526.71" y1="703.97" x2="526.71" y2="843.37"/><line class="cls-20" x1="574.27" y1="703.97" x2="574.27" y2="843.37"/><line class="cls-20" x1="621.83" y1="703.97" x2="621.83" y2="843.37"/><line class="cls-20" x1="669.39" y1="703.97" x2="669.39" y2="843.37"/><line class="cls-20" x1="716.94" y1="703.97" x2="716.94" y2="843.37"/></g><g id="PICTURE"><polygon class="cls-7" points="651.59 1007.79 662.05 1098.32 633.95 1098.3 651.59 1007.79"/><rect class="cls-5" x="651.58" y="997.32" width="150.61" height="100.99" rx="10.46"/><path class="cls-16" d="M737.86,1083H684c-5.13,0-8.73-6.48-6.86-12.5,4.29-13.85,15.52-24.2,29.17-26.13a13,13,0,0,1-6.75-11.77c0-7.11,5.09-12.88,11.36-12.88s11.37,5.77,11.37,12.88a13,13,0,0,1-6.76,11.77c13.65,1.93,24.88,12.28,29.18,26.13C746.59,1076.48,743,1083,737.86,1083Z"/><ellipse class="cls-16" cx="754.97" cy="1040.7" rx="10.82" ry="11.64"/><path class="cls-11" d="M725.19,1081.27,742.51,1064a17.64,17.64,0,0,1,24.93,0l17.31,17.32"/></g><g id="FLOWERS"><path class="cls-5" d="M490,961.52c-.85,3-10.71,17-10.71,17s-1.08-17.09-.23-20.11A5.68,5.68,0,0,1,490,961.52Z"/><path class="cls-5" d="M466.1,1004.52c.85-3,10.71-17,10.71-17s1.09,17.09.23,20.11a5.68,5.68,0,1,1-10.94-3.08Z"/><path class="cls-5" d="M453.55,981c3.1-.47,19.93,2.73,19.93,2.73s-15.13,8-18.23,8.51a5.68,5.68,0,0,1-1.7-11.24Z"/><path class="cls-5" d="M502.59,985.05c-3.11.47-19.94-2.73-19.94-2.73s15.13-8,18.23-8.51a5.68,5.68,0,0,1,1.71,11.24Z"/><path class="cls-5" d="M456.78,970.69c2.28,2.16,17.92,9.14,17.92,9.14s-7.83-15.24-10.11-17.4a5.68,5.68,0,0,0-7.81,8.26Z"/><path class="cls-5" d="M499.36,995.35c-2.28-2.16-17.93-9.14-17.93-9.14s7.83,15.24,10.11,17.4a5.69,5.69,0,0,0,7.82-8.26Z"/><circle class="cls-16" cx="478.04" cy="983.12" r="8.68" transform="translate(-486.88 469.33) rotate(-36.03)"/><line class="cls-4" x1="507.78" y1="995.69" x2="539.41" y2="1070.57"/><line class="cls-4" x1="516.54" y1="1076.97" x2="529.7" y2="981.56"/><circle class="cls-11" cx="524.28" cy="1053.66" r="44.66" transform="translate(-591.5 679.33) rotate(-45)"/><path class="cls-5" d="M537.6,901.5c0,2.76-3.15,12.74-5.47,19.71a2.56,2.56,0,0,1-4.85,0c-2.33-7-5.48-17-5.48-19.71a7.9,7.9,0,1,1,15.8,0Z"/><path class="cls-5" d="M521.8,968c0-2.76,3.15-12.74,5.48-19.71a2.56,2.56,0,0,1,4.85,0c2.32,7,5.47,16.95,5.47,19.71a7.9,7.9,0,1,1-15.8,0Z"/><path class="cls-5" d="M496.43,926.87c2.76,0,12.74,3.15,19.71,5.47a2.55,2.55,0,0,1,0,4.85c-7,2.33-16.95,5.48-19.71,5.48a7.9,7.9,0,0,1,0-15.8Z"/><path class="cls-5" d="M563,942.67c-2.75,0-12.73-3.15-19.71-5.48a2.56,2.56,0,0,1,0-4.85c7-2.32,17-5.47,19.71-5.47a7.9,7.9,0,0,1,0,15.8Z"/><path class="cls-5" d="M500.59,952.71c2-2,11.24-6.78,17.81-10.07a2.56,2.56,0,0,1,3.43,3.43c-3.29,6.57-8.12,15.86-10.07,17.81a7.9,7.9,0,1,1-11.17-11.17Z"/><path class="cls-5" d="M558.81,916.83c-1.94,1.95-11.23,6.78-17.81,10.07a2.56,2.56,0,0,1-3.43-3.43c3.29-6.58,8.12-15.86,10.07-17.81a7.9,7.9,0,0,1,11.17,11.17Z"/><path class="cls-5" d="M500.59,916.83c2,1.95,11.24,6.78,17.81,10.07a2.56,2.56,0,0,0,3.43-3.43c-3.29-6.58-8.12-15.86-10.07-17.81a7.9,7.9,0,1,0-11.17,11.17Z"/><path class="cls-5" d="M558.81,952.71c-1.94-2-11.23-6.78-17.81-10.07a2.56,2.56,0,0,0-3.43,3.43c3.29,6.57,8.12,15.86,10.07,17.81a7.9,7.9,0,0,0,11.17-11.17Z"/><circle class="cls-16" cx="529.7" cy="934.77" r="9.5"/></g></g><g id="LAMP-2" data-name="LAMP"><line class="cls-21" x1="1060.53" y1="235.23" x2="1060.53" y2="331.71"/><circle class="cls-5" cx="1060.53" cy="451.29" r="36.53"/><path class="cls-22" d="M1167.51,453.12H953l47.83-107.72a23.05,23.05,0,0,1,21.06-13.69h76.77a23,23,0,0,1,21.06,13.69Z"/><polygon class="cls-22" points="1116.88 453.12 1002.05 453.12 1040.62 331.71 1078.32 331.71 1116.88 453.12"/><line class="cls-22" x1="1060.53" y1="331.71" x2="1060.53" y2="453.12"/></g></svg>